<mxfile host="app.diagrams.net" agent="Mozilla/5.0 (Windows NT 10.0; Win64; x64) AppleWebKit/537.36 (KHTML, like Gecko) Chrome/135.0.0.0 Safari/537.36" version="26.2.14">
  <diagram name="Page-1" id="0zKdmFBzpZwUbDWvONbh">
    <mxGraphModel dx="2437" dy="785" grid="0" gridSize="10" guides="1" tooltips="1" connect="1" arrows="1" fold="1" page="1" pageScale="1" pageWidth="850" pageHeight="1100" math="0" shadow="0">
      <root>
        <mxCell id="0" />
        <mxCell id="1" parent="0" />
        <mxCell id="X-BTb6-6nl6qmNZ8qR7I-1" value="Employee" style="rounded=0;whiteSpace=wrap;html=1;" vertex="1" parent="1">
          <mxGeometry x="365" y="171" width="120" height="60" as="geometry" />
        </mxCell>
        <mxCell id="X-BTb6-6nl6qmNZ8qR7I-2" value="" style="rounded=0;whiteSpace=wrap;html=1;" vertex="1" parent="1">
          <mxGeometry x="93" y="188" width="120" height="60" as="geometry" />
        </mxCell>
        <mxCell id="X-BTb6-6nl6qmNZ8qR7I-3" value="Project" style="rounded=0;whiteSpace=wrap;html=1;" vertex="1" parent="1">
          <mxGeometry x="626" y="392" width="120" height="60" as="geometry" />
        </mxCell>
        <mxCell id="X-BTb6-6nl6qmNZ8qR7I-4" value="Department" style="rounded=0;whiteSpace=wrap;html=1;" vertex="1" parent="1">
          <mxGeometry x="807" y="174" width="120" height="60" as="geometry" />
        </mxCell>
        <mxCell id="X-BTb6-6nl6qmNZ8qR7I-5" value="" style="ellipse;whiteSpace=wrap;html=1;" vertex="1" parent="1">
          <mxGeometry x="376" y="41" width="68" height="44" as="geometry" />
        </mxCell>
        <mxCell id="X-BTb6-6nl6qmNZ8qR7I-6" value="Lname" style="ellipse;whiteSpace=wrap;html=1;" vertex="1" parent="1">
          <mxGeometry x="321" y="77" width="68" height="44" as="geometry" />
        </mxCell>
        <mxCell id="X-BTb6-6nl6qmNZ8qR7I-15" style="edgeStyle=orthogonalEdgeStyle;rounded=0;orthogonalLoop=1;jettySize=auto;html=1;exitX=1;exitY=1;exitDx=0;exitDy=0;entryX=0;entryY=0.25;entryDx=0;entryDy=0;endArrow=none;startFill=0;" edge="1" parent="1" source="X-BTb6-6nl6qmNZ8qR7I-7" target="X-BTb6-6nl6qmNZ8qR7I-1">
          <mxGeometry relative="1" as="geometry" />
        </mxCell>
        <mxCell id="X-BTb6-6nl6qmNZ8qR7I-7" value="Minit" style="ellipse;whiteSpace=wrap;html=1;" vertex="1" parent="1">
          <mxGeometry x="271" y="122" width="68" height="44" as="geometry" />
        </mxCell>
        <mxCell id="X-BTb6-6nl6qmNZ8qR7I-20" style="edgeStyle=orthogonalEdgeStyle;rounded=0;orthogonalLoop=1;jettySize=auto;html=1;exitX=0;exitY=1;exitDx=0;exitDy=0;entryX=1;entryY=0.25;entryDx=0;entryDy=0;endArrow=none;startFill=0;" edge="1" parent="1" source="X-BTb6-6nl6qmNZ8qR7I-8" target="X-BTb6-6nl6qmNZ8qR7I-1">
          <mxGeometry relative="1" as="geometry" />
        </mxCell>
        <mxCell id="X-BTb6-6nl6qmNZ8qR7I-8" value="Bdate" style="ellipse;whiteSpace=wrap;html=1;labelBackgroundColor=none;labelBorderColor=none;textShadow=0;dashed=1;" vertex="1" parent="1">
          <mxGeometry x="550" y="121" width="70" height="40" as="geometry" />
        </mxCell>
        <mxCell id="X-BTb6-6nl6qmNZ8qR7I-21" style="edgeStyle=orthogonalEdgeStyle;rounded=0;orthogonalLoop=1;jettySize=auto;html=1;exitX=0;exitY=1;exitDx=0;exitDy=0;entryX=1;entryY=0.75;entryDx=0;entryDy=0;endArrow=none;startFill=0;" edge="1" parent="1" source="X-BTb6-6nl6qmNZ8qR7I-10" target="X-BTb6-6nl6qmNZ8qR7I-1">
          <mxGeometry relative="1" as="geometry" />
        </mxCell>
        <mxCell id="X-BTb6-6nl6qmNZ8qR7I-10" value="Salary" style="ellipse;whiteSpace=wrap;html=1;dashed=1;" vertex="1" parent="1">
          <mxGeometry x="532" y="166" width="68" height="44" as="geometry" />
        </mxCell>
        <mxCell id="X-BTb6-6nl6qmNZ8qR7I-11" value="Sex" style="ellipse;whiteSpace=wrap;html=1;" vertex="1" parent="1">
          <mxGeometry x="524" y="71" width="68" height="44" as="geometry" />
        </mxCell>
        <mxCell id="X-BTb6-6nl6qmNZ8qR7I-14" style="edgeStyle=orthogonalEdgeStyle;rounded=0;orthogonalLoop=1;jettySize=auto;html=1;exitX=1;exitY=0.5;exitDx=0;exitDy=0;entryX=0;entryY=0.5;entryDx=0;entryDy=0;endArrow=none;startFill=0;" edge="1" parent="1" source="X-BTb6-6nl6qmNZ8qR7I-12" target="X-BTb6-6nl6qmNZ8qR7I-1">
          <mxGeometry relative="1" as="geometry" />
        </mxCell>
        <mxCell id="X-BTb6-6nl6qmNZ8qR7I-12" value="Fname" style="ellipse;whiteSpace=wrap;html=1;" vertex="1" parent="1">
          <mxGeometry x="258" y="174" width="68" height="44" as="geometry" />
        </mxCell>
        <mxCell id="X-BTb6-6nl6qmNZ8qR7I-16" style="edgeStyle=orthogonalEdgeStyle;rounded=0;orthogonalLoop=1;jettySize=auto;html=1;exitX=0.5;exitY=1;exitDx=0;exitDy=0;entryX=0.117;entryY=0.033;entryDx=0;entryDy=0;entryPerimeter=0;endArrow=none;startFill=0;" edge="1" parent="1" source="X-BTb6-6nl6qmNZ8qR7I-6" target="X-BTb6-6nl6qmNZ8qR7I-1">
          <mxGeometry relative="1" as="geometry" />
        </mxCell>
        <mxCell id="X-BTb6-6nl6qmNZ8qR7I-17" style="edgeStyle=orthogonalEdgeStyle;rounded=0;orthogonalLoop=1;jettySize=auto;html=1;exitX=0.5;exitY=1;exitDx=0;exitDy=0;entryX=0.558;entryY=0.017;entryDx=0;entryDy=0;entryPerimeter=0;endArrow=none;startFill=0;" edge="1" parent="1" source="X-BTb6-6nl6qmNZ8qR7I-5" target="X-BTb6-6nl6qmNZ8qR7I-1">
          <mxGeometry relative="1" as="geometry" />
        </mxCell>
        <mxCell id="X-BTb6-6nl6qmNZ8qR7I-18" style="edgeStyle=orthogonalEdgeStyle;rounded=0;orthogonalLoop=1;jettySize=auto;html=1;exitX=0;exitY=1;exitDx=0;exitDy=0;entryX=0.808;entryY=0;entryDx=0;entryDy=0;entryPerimeter=0;endArrow=none;startFill=0;" edge="1" parent="1" source="X-BTb6-6nl6qmNZ8qR7I-11" target="X-BTb6-6nl6qmNZ8qR7I-1">
          <mxGeometry relative="1" as="geometry">
            <Array as="points">
              <mxPoint x="504" y="109" />
              <mxPoint x="504" y="171" />
            </Array>
          </mxGeometry>
        </mxCell>
        <mxCell id="X-BTb6-6nl6qmNZ8qR7I-22" value="Address" style="ellipse;whiteSpace=wrap;html=1;" vertex="1" parent="1">
          <mxGeometry x="381" y="47" width="58" height="32" as="geometry" />
        </mxCell>
        <mxCell id="X-BTb6-6nl6qmNZ8qR7I-24" value="Dependent" style="rounded=0;whiteSpace=wrap;html=1;" vertex="1" parent="1">
          <mxGeometry x="97.5" y="195" width="111" height="46" as="geometry" />
        </mxCell>
        <mxCell id="X-BTb6-6nl6qmNZ8qR7I-33" style="edgeStyle=orthogonalEdgeStyle;rounded=0;orthogonalLoop=1;jettySize=auto;html=1;exitX=0.5;exitY=0;exitDx=0;exitDy=0;entryX=0;entryY=1;entryDx=0;entryDy=0;endArrow=none;startFill=0;" edge="1" parent="1" source="X-BTb6-6nl6qmNZ8qR7I-25" target="X-BTb6-6nl6qmNZ8qR7I-2">
          <mxGeometry relative="1" as="geometry" />
        </mxCell>
        <mxCell id="X-BTb6-6nl6qmNZ8qR7I-25" value="Relationship" style="ellipse;whiteSpace=wrap;html=1;" vertex="1" parent="1">
          <mxGeometry x="34" y="271" width="78" height="44" as="geometry" />
        </mxCell>
        <mxCell id="X-BTb6-6nl6qmNZ8qR7I-32" style="edgeStyle=orthogonalEdgeStyle;rounded=0;orthogonalLoop=1;jettySize=auto;html=1;exitX=1;exitY=0.5;exitDx=0;exitDy=0;entryX=0;entryY=0.75;entryDx=0;entryDy=0;endArrow=none;startFill=0;" edge="1" parent="1" source="X-BTb6-6nl6qmNZ8qR7I-26" target="X-BTb6-6nl6qmNZ8qR7I-2">
          <mxGeometry relative="1" as="geometry" />
        </mxCell>
        <mxCell id="X-BTb6-6nl6qmNZ8qR7I-26" value="Bdate" style="ellipse;whiteSpace=wrap;html=1;" vertex="1" parent="1">
          <mxGeometry x="-5" y="216" width="68" height="44" as="geometry" />
        </mxCell>
        <mxCell id="X-BTb6-6nl6qmNZ8qR7I-31" style="edgeStyle=orthogonalEdgeStyle;rounded=0;orthogonalLoop=1;jettySize=auto;html=1;entryX=0;entryY=0.5;entryDx=0;entryDy=0;endArrow=none;startFill=0;" edge="1" parent="1" source="X-BTb6-6nl6qmNZ8qR7I-27" target="X-BTb6-6nl6qmNZ8qR7I-2">
          <mxGeometry relative="1" as="geometry" />
        </mxCell>
        <mxCell id="X-BTb6-6nl6qmNZ8qR7I-27" value="Sex" style="ellipse;whiteSpace=wrap;html=1;" vertex="1" parent="1">
          <mxGeometry x="-2" y="160" width="68" height="44" as="geometry" />
        </mxCell>
        <mxCell id="X-BTb6-6nl6qmNZ8qR7I-30" style="edgeStyle=orthogonalEdgeStyle;rounded=0;orthogonalLoop=1;jettySize=auto;html=1;entryX=0;entryY=0;entryDx=0;entryDy=0;endArrow=none;startFill=0;" edge="1" parent="1" source="X-BTb6-6nl6qmNZ8qR7I-28" target="X-BTb6-6nl6qmNZ8qR7I-2">
          <mxGeometry relative="1" as="geometry" />
        </mxCell>
        <mxCell id="X-BTb6-6nl6qmNZ8qR7I-28" value="Name" style="ellipse;whiteSpace=wrap;html=1;" vertex="1" parent="1">
          <mxGeometry x="53" y="104" width="68" height="44" as="geometry" />
        </mxCell>
        <mxCell id="X-BTb6-6nl6qmNZ8qR7I-34" value="NumberOfEmployees" style="ellipse;whiteSpace=wrap;html=1;" vertex="1" parent="1">
          <mxGeometry x="916" y="273.5" width="145" height="39" as="geometry" />
        </mxCell>
        <mxCell id="X-BTb6-6nl6qmNZ8qR7I-35" value="" style="ellipse;whiteSpace=wrap;html=1;" vertex="1" parent="1">
          <mxGeometry x="958" y="220" width="68" height="44" as="geometry" />
        </mxCell>
        <mxCell id="X-BTb6-6nl6qmNZ8qR7I-39" style="edgeStyle=orthogonalEdgeStyle;rounded=0;orthogonalLoop=1;jettySize=auto;html=1;exitX=0;exitY=0.5;exitDx=0;exitDy=0;entryX=1;entryY=0.25;entryDx=0;entryDy=0;endArrow=none;startFill=0;" edge="1" parent="1" source="X-BTb6-6nl6qmNZ8qR7I-36" target="X-BTb6-6nl6qmNZ8qR7I-4">
          <mxGeometry relative="1" as="geometry" />
        </mxCell>
        <mxCell id="X-BTb6-6nl6qmNZ8qR7I-36" value="Number" style="ellipse;whiteSpace=wrap;html=1;" vertex="1" parent="1">
          <mxGeometry x="947" y="166" width="68" height="44" as="geometry" />
        </mxCell>
        <mxCell id="X-BTb6-6nl6qmNZ8qR7I-37" value="Name" style="ellipse;whiteSpace=wrap;html=1;fontStyle=4" vertex="1" parent="1">
          <mxGeometry x="905" y="111" width="68" height="44" as="geometry" />
        </mxCell>
        <mxCell id="X-BTb6-6nl6qmNZ8qR7I-38" style="edgeStyle=orthogonalEdgeStyle;rounded=0;orthogonalLoop=1;jettySize=auto;html=1;exitX=0;exitY=1;exitDx=0;exitDy=0;entryX=0.9;entryY=0.083;entryDx=0;entryDy=0;entryPerimeter=0;endArrow=none;startFill=0;" edge="1" parent="1" source="X-BTb6-6nl6qmNZ8qR7I-37" target="X-BTb6-6nl6qmNZ8qR7I-4">
          <mxGeometry relative="1" as="geometry" />
        </mxCell>
        <mxCell id="X-BTb6-6nl6qmNZ8qR7I-40" style="edgeStyle=orthogonalEdgeStyle;rounded=0;orthogonalLoop=1;jettySize=auto;html=1;exitX=0;exitY=0;exitDx=0;exitDy=0;entryX=0.967;entryY=0.65;entryDx=0;entryDy=0;entryPerimeter=0;endArrow=none;startFill=0;" edge="1" parent="1" source="X-BTb6-6nl6qmNZ8qR7I-35" target="X-BTb6-6nl6qmNZ8qR7I-4">
          <mxGeometry relative="1" as="geometry" />
        </mxCell>
        <mxCell id="X-BTb6-6nl6qmNZ8qR7I-41" style="edgeStyle=orthogonalEdgeStyle;rounded=0;orthogonalLoop=1;jettySize=auto;html=1;exitX=0;exitY=0;exitDx=0;exitDy=0;entryX=0.925;entryY=1.017;entryDx=0;entryDy=0;entryPerimeter=0;endArrow=none;startFill=0;" edge="1" parent="1" source="X-BTb6-6nl6qmNZ8qR7I-34" target="X-BTb6-6nl6qmNZ8qR7I-4">
          <mxGeometry relative="1" as="geometry" />
        </mxCell>
        <mxCell id="X-BTb6-6nl6qmNZ8qR7I-42" value="Location" style="ellipse;whiteSpace=wrap;html=1;" vertex="1" parent="1">
          <mxGeometry x="734" y="485" width="68" height="44" as="geometry" />
        </mxCell>
        <mxCell id="X-BTb6-6nl6qmNZ8qR7I-46" style="edgeStyle=orthogonalEdgeStyle;rounded=0;orthogonalLoop=1;jettySize=auto;html=1;exitX=0.5;exitY=0;exitDx=0;exitDy=0;entryX=0;entryY=1;entryDx=0;entryDy=0;endArrow=none;startFill=0;" edge="1" parent="1" source="X-BTb6-6nl6qmNZ8qR7I-43" target="X-BTb6-6nl6qmNZ8qR7I-3">
          <mxGeometry relative="1" as="geometry" />
        </mxCell>
        <mxCell id="X-BTb6-6nl6qmNZ8qR7I-43" value="Name" style="ellipse;whiteSpace=wrap;html=1;fontStyle=4" vertex="1" parent="1">
          <mxGeometry x="571" y="485" width="68" height="44" as="geometry" />
        </mxCell>
        <mxCell id="X-BTb6-6nl6qmNZ8qR7I-47" style="edgeStyle=orthogonalEdgeStyle;rounded=0;orthogonalLoop=1;jettySize=auto;html=1;exitX=0.5;exitY=0;exitDx=0;exitDy=0;entryX=0.5;entryY=1;entryDx=0;entryDy=0;endArrow=none;startFill=0;" edge="1" parent="1" source="X-BTb6-6nl6qmNZ8qR7I-44" target="X-BTb6-6nl6qmNZ8qR7I-3">
          <mxGeometry relative="1" as="geometry" />
        </mxCell>
        <mxCell id="X-BTb6-6nl6qmNZ8qR7I-44" value="Number" style="ellipse;whiteSpace=wrap;html=1;fontStyle=4" vertex="1" parent="1">
          <mxGeometry x="653" y="477" width="70" height="44" as="geometry" />
        </mxCell>
        <mxCell id="X-BTb6-6nl6qmNZ8qR7I-48" style="edgeStyle=orthogonalEdgeStyle;rounded=0;orthogonalLoop=1;jettySize=auto;html=1;exitX=0;exitY=0;exitDx=0;exitDy=0;entryX=0.883;entryY=1;entryDx=0;entryDy=0;entryPerimeter=0;endArrow=none;startFill=0;" edge="1" parent="1" source="X-BTb6-6nl6qmNZ8qR7I-42" target="X-BTb6-6nl6qmNZ8qR7I-3">
          <mxGeometry relative="1" as="geometry" />
        </mxCell>
        <mxCell id="X-BTb6-6nl6qmNZ8qR7I-54" style="edgeStyle=orthogonalEdgeStyle;rounded=0;orthogonalLoop=1;jettySize=auto;html=1;exitX=0;exitY=0.5;exitDx=0;exitDy=0;entryX=0.75;entryY=1;entryDx=0;entryDy=0;endArrow=none;startFill=0;" edge="1" parent="1" source="X-BTb6-6nl6qmNZ8qR7I-49" target="X-BTb6-6nl6qmNZ8qR7I-2">
          <mxGeometry relative="1" as="geometry" />
        </mxCell>
        <mxCell id="X-BTb6-6nl6qmNZ8qR7I-68" style="edgeStyle=orthogonalEdgeStyle;rounded=0;orthogonalLoop=1;jettySize=auto;html=1;exitX=1;exitY=0.5;exitDx=0;exitDy=0;entryX=0;entryY=0.75;entryDx=0;entryDy=0;endArrow=none;startFill=0;" edge="1" parent="1" source="X-BTb6-6nl6qmNZ8qR7I-49" target="X-BTb6-6nl6qmNZ8qR7I-1">
          <mxGeometry relative="1" as="geometry" />
        </mxCell>
        <mxCell id="X-BTb6-6nl6qmNZ8qR7I-49" value="" style="rhombus;whiteSpace=wrap;html=1;" vertex="1" parent="1">
          <mxGeometry x="243" y="256" width="69" height="59" as="geometry" />
        </mxCell>
        <mxCell id="X-BTb6-6nl6qmNZ8qR7I-50" value="Have" style="rhombus;whiteSpace=wrap;html=1;" vertex="1" parent="1">
          <mxGeometry x="252" y="264" width="50" height="41" as="geometry" />
        </mxCell>
        <mxCell id="X-BTb6-6nl6qmNZ8qR7I-57" style="edgeStyle=orthogonalEdgeStyle;rounded=0;orthogonalLoop=1;jettySize=auto;html=1;exitX=1;exitY=0.5;exitDx=0;exitDy=0;entryX=0;entryY=0.5;entryDx=0;entryDy=0;endArrow=none;startFill=0;" edge="1" parent="1" source="X-BTb6-6nl6qmNZ8qR7I-55" target="X-BTb6-6nl6qmNZ8qR7I-4">
          <mxGeometry relative="1" as="geometry" />
        </mxCell>
        <mxCell id="X-BTb6-6nl6qmNZ8qR7I-62" style="edgeStyle=orthogonalEdgeStyle;rounded=0;orthogonalLoop=1;jettySize=auto;html=1;exitX=0.5;exitY=0;exitDx=0;exitDy=0;entryX=0.5;entryY=1;entryDx=0;entryDy=0;endArrow=none;startFill=0;" edge="1" parent="1" source="X-BTb6-6nl6qmNZ8qR7I-55" target="X-BTb6-6nl6qmNZ8qR7I-61">
          <mxGeometry relative="1" as="geometry" />
        </mxCell>
        <mxCell id="X-BTb6-6nl6qmNZ8qR7I-55" value="Work for" style="rhombus;whiteSpace=wrap;html=1;" vertex="1" parent="1">
          <mxGeometry x="656" y="193" width="61" height="61" as="geometry" />
        </mxCell>
        <mxCell id="X-BTb6-6nl6qmNZ8qR7I-59" style="edgeStyle=orthogonalEdgeStyle;rounded=0;orthogonalLoop=1;jettySize=auto;html=1;exitX=0;exitY=0.5;exitDx=0;exitDy=0;entryX=0.992;entryY=0.883;entryDx=0;entryDy=0;entryPerimeter=0;endArrow=none;startFill=0;" edge="1" parent="1" source="X-BTb6-6nl6qmNZ8qR7I-55" target="X-BTb6-6nl6qmNZ8qR7I-1">
          <mxGeometry relative="1" as="geometry" />
        </mxCell>
        <mxCell id="X-BTb6-6nl6qmNZ8qR7I-61" value="StartDate" style="ellipse;whiteSpace=wrap;html=1;" vertex="1" parent="1">
          <mxGeometry x="652" y="137" width="68" height="44" as="geometry" />
        </mxCell>
        <mxCell id="X-BTb6-6nl6qmNZ8qR7I-63" value="Locations" style="ellipse;whiteSpace=wrap;html=1;" vertex="1" parent="1">
          <mxGeometry x="962" y="225" width="59" height="33" as="geometry" />
        </mxCell>
        <mxCell id="X-BTb6-6nl6qmNZ8qR7I-64" value="Supervise" style="rhombus;whiteSpace=wrap;html=1;" vertex="1" parent="1">
          <mxGeometry x="381" y="282" width="68" height="61" as="geometry" />
        </mxCell>
        <mxCell id="X-BTb6-6nl6qmNZ8qR7I-65" style="edgeStyle=orthogonalEdgeStyle;rounded=0;orthogonalLoop=1;jettySize=auto;html=1;exitX=1;exitY=0.5;exitDx=0;exitDy=0;entryX=0.675;entryY=0.95;entryDx=0;entryDy=0;entryPerimeter=0;endArrow=none;startFill=0;" edge="1" parent="1" source="X-BTb6-6nl6qmNZ8qR7I-64" target="X-BTb6-6nl6qmNZ8qR7I-1">
          <mxGeometry relative="1" as="geometry">
            <Array as="points">
              <mxPoint x="446" y="313" />
            </Array>
          </mxGeometry>
        </mxCell>
        <mxCell id="X-BTb6-6nl6qmNZ8qR7I-67" style="edgeStyle=orthogonalEdgeStyle;rounded=0;orthogonalLoop=1;jettySize=auto;html=1;exitX=0;exitY=0.5;exitDx=0;exitDy=0;entryX=0.2;entryY=1;entryDx=0;entryDy=0;entryPerimeter=0;endArrow=none;startFill=0;" edge="1" parent="1" source="X-BTb6-6nl6qmNZ8qR7I-64" target="X-BTb6-6nl6qmNZ8qR7I-1">
          <mxGeometry relative="1" as="geometry">
            <Array as="points">
              <mxPoint x="374" y="313" />
              <mxPoint x="374" y="257" />
              <mxPoint x="389" y="257" />
            </Array>
          </mxGeometry>
        </mxCell>
        <mxCell id="X-BTb6-6nl6qmNZ8qR7I-75" style="edgeStyle=orthogonalEdgeStyle;rounded=0;orthogonalLoop=1;jettySize=auto;html=1;exitX=0.5;exitY=1;exitDx=0;exitDy=0;entryX=0;entryY=0.5;entryDx=0;entryDy=0;endArrow=none;startFill=0;" edge="1" parent="1" source="X-BTb6-6nl6qmNZ8qR7I-69" target="X-BTb6-6nl6qmNZ8qR7I-3">
          <mxGeometry relative="1" as="geometry" />
        </mxCell>
        <mxCell id="X-BTb6-6nl6qmNZ8qR7I-76" style="edgeStyle=orthogonalEdgeStyle;rounded=0;orthogonalLoop=1;jettySize=auto;html=1;exitX=0;exitY=0.5;exitDx=0;exitDy=0;entryX=0.5;entryY=0;entryDx=0;entryDy=0;endArrow=none;startFill=0;" edge="1" parent="1" source="X-BTb6-6nl6qmNZ8qR7I-69" target="X-BTb6-6nl6qmNZ8qR7I-77">
          <mxGeometry relative="1" as="geometry">
            <mxPoint x="463" y="402" as="targetPoint" />
          </mxGeometry>
        </mxCell>
        <mxCell id="X-BTb6-6nl6qmNZ8qR7I-69" value="Work on" style="rhombus;whiteSpace=wrap;html=1;" vertex="1" parent="1">
          <mxGeometry x="515" y="322" width="64" height="59" as="geometry" />
        </mxCell>
        <mxCell id="X-BTb6-6nl6qmNZ8qR7I-72" style="edgeStyle=orthogonalEdgeStyle;rounded=0;orthogonalLoop=1;jettySize=auto;html=1;exitX=0;exitY=0.5;exitDx=0;exitDy=0;entryX=1;entryY=1;entryDx=0;entryDy=0;endArrow=none;startFill=0;" edge="1" parent="1" source="X-BTb6-6nl6qmNZ8qR7I-70" target="X-BTb6-6nl6qmNZ8qR7I-1">
          <mxGeometry relative="1" as="geometry">
            <Array as="points">
              <mxPoint x="624" y="295" />
              <mxPoint x="624" y="256" />
              <mxPoint x="485" y="256" />
            </Array>
          </mxGeometry>
        </mxCell>
        <mxCell id="X-BTb6-6nl6qmNZ8qR7I-73" style="edgeStyle=orthogonalEdgeStyle;rounded=0;orthogonalLoop=1;jettySize=auto;html=1;exitX=1;exitY=0.5;exitDx=0;exitDy=0;entryX=0;entryY=1;entryDx=0;entryDy=0;endArrow=none;startFill=0;" edge="1" parent="1" source="X-BTb6-6nl6qmNZ8qR7I-70" target="X-BTb6-6nl6qmNZ8qR7I-4">
          <mxGeometry relative="1" as="geometry">
            <Array as="points">
              <mxPoint x="763" y="295" />
              <mxPoint x="763" y="234" />
            </Array>
          </mxGeometry>
        </mxCell>
        <mxCell id="X-BTb6-6nl6qmNZ8qR7I-98" style="edgeStyle=orthogonalEdgeStyle;rounded=0;orthogonalLoop=1;jettySize=auto;html=1;exitX=1;exitY=1;exitDx=0;exitDy=0;entryX=0;entryY=1;entryDx=0;entryDy=0;endArrow=none;startFill=0;" edge="1" parent="1" source="X-BTb6-6nl6qmNZ8qR7I-70" target="X-BTb6-6nl6qmNZ8qR7I-4">
          <mxGeometry relative="1" as="geometry">
            <Array as="points">
              <mxPoint x="703" y="301" />
              <mxPoint x="770" y="301" />
              <mxPoint x="770" y="239" />
              <mxPoint x="807" y="239" />
            </Array>
          </mxGeometry>
        </mxCell>
        <mxCell id="X-BTb6-6nl6qmNZ8qR7I-70" value="Manage" style="rhombus;whiteSpace=wrap;html=1;" vertex="1" parent="1">
          <mxGeometry x="655" y="265" width="64" height="59" as="geometry" />
        </mxCell>
        <mxCell id="X-BTb6-6nl6qmNZ8qR7I-74" style="edgeStyle=orthogonalEdgeStyle;rounded=0;orthogonalLoop=1;jettySize=auto;html=1;exitX=0.5;exitY=0;exitDx=0;exitDy=0;entryX=0.858;entryY=0.983;entryDx=0;entryDy=0;entryPerimeter=0;endArrow=none;startFill=0;" edge="1" parent="1" source="X-BTb6-6nl6qmNZ8qR7I-69" target="X-BTb6-6nl6qmNZ8qR7I-1">
          <mxGeometry relative="1" as="geometry" />
        </mxCell>
        <mxCell id="X-BTb6-6nl6qmNZ8qR7I-77" value="Hours logged" style="ellipse;whiteSpace=wrap;html=1;" vertex="1" parent="1">
          <mxGeometry x="428" y="404" width="88" height="44" as="geometry" />
        </mxCell>
        <mxCell id="X-BTb6-6nl6qmNZ8qR7I-80" style="edgeStyle=orthogonalEdgeStyle;rounded=0;orthogonalLoop=1;jettySize=auto;html=1;exitX=0.5;exitY=1;exitDx=0;exitDy=0;entryX=0.75;entryY=0;entryDx=0;entryDy=0;endArrow=none;startFill=0;" edge="1" parent="1" source="X-BTb6-6nl6qmNZ8qR7I-78" target="X-BTb6-6nl6qmNZ8qR7I-1">
          <mxGeometry relative="1" as="geometry" />
        </mxCell>
        <mxCell id="X-BTb6-6nl6qmNZ8qR7I-78" value="SSN" style="ellipse;whiteSpace=wrap;html=1;fontStyle=4" vertex="1" parent="1">
          <mxGeometry x="451" y="43" width="68" height="44" as="geometry" />
        </mxCell>
        <mxCell id="X-BTb6-6nl6qmNZ8qR7I-84" style="edgeStyle=orthogonalEdgeStyle;rounded=0;orthogonalLoop=1;jettySize=auto;html=1;exitX=0.5;exitY=1;exitDx=0;exitDy=0;entryX=1;entryY=0.5;entryDx=0;entryDy=0;endArrow=none;startFill=0;" edge="1" parent="1" source="X-BTb6-6nl6qmNZ8qR7I-82" target="X-BTb6-6nl6qmNZ8qR7I-3">
          <mxGeometry relative="1" as="geometry" />
        </mxCell>
        <mxCell id="X-BTb6-6nl6qmNZ8qR7I-82" value="Control" style="rhombus;whiteSpace=wrap;html=1;" vertex="1" parent="1">
          <mxGeometry x="820" y="322" width="64" height="59" as="geometry" />
        </mxCell>
        <mxCell id="X-BTb6-6nl6qmNZ8qR7I-83" style="edgeStyle=orthogonalEdgeStyle;rounded=0;orthogonalLoop=1;jettySize=auto;html=1;exitX=0.5;exitY=0;exitDx=0;exitDy=0;entryX=0.383;entryY=0.983;entryDx=0;entryDy=0;entryPerimeter=0;endArrow=none;startFill=0;" edge="1" parent="1" source="X-BTb6-6nl6qmNZ8qR7I-82" target="X-BTb6-6nl6qmNZ8qR7I-4">
          <mxGeometry relative="1" as="geometry" />
        </mxCell>
        <mxCell id="X-BTb6-6nl6qmNZ8qR7I-85" value="M" style="text;html=1;align=center;verticalAlign=middle;resizable=0;points=[];autosize=1;strokeColor=none;fillColor=none;" vertex="1" parent="1">
          <mxGeometry x="156" y="251" width="28" height="26" as="geometry" />
        </mxCell>
        <mxCell id="X-BTb6-6nl6qmNZ8qR7I-86" value="1" style="text;html=1;align=center;verticalAlign=middle;resizable=0;points=[];autosize=1;strokeColor=none;fillColor=none;" vertex="1" parent="1">
          <mxGeometry x="308" y="260" width="25" height="26" as="geometry" />
        </mxCell>
        <mxCell id="X-BTb6-6nl6qmNZ8qR7I-87" style="edgeStyle=orthogonalEdgeStyle;rounded=0;orthogonalLoop=1;jettySize=auto;html=1;exitX=0;exitY=0;exitDx=0;exitDy=0;entryX=0.817;entryY=1;entryDx=0;entryDy=0;entryPerimeter=0;endArrow=none;startFill=0;" edge="1" parent="1" source="X-BTb6-6nl6qmNZ8qR7I-49" target="X-BTb6-6nl6qmNZ8qR7I-2">
          <mxGeometry relative="1" as="geometry">
            <Array as="points">
              <mxPoint x="260" y="276" />
              <mxPoint x="191" y="276" />
            </Array>
          </mxGeometry>
        </mxCell>
        <mxCell id="X-BTb6-6nl6qmNZ8qR7I-88" style="edgeStyle=orthogonalEdgeStyle;rounded=0;orthogonalLoop=1;jettySize=auto;html=1;exitX=1;exitY=0;exitDx=0;exitDy=0;entryX=0.617;entryY=1;entryDx=0;entryDy=0;entryPerimeter=0;endArrow=none;startFill=0;" edge="1" parent="1" source="X-BTb6-6nl6qmNZ8qR7I-64" target="X-BTb6-6nl6qmNZ8qR7I-1">
          <mxGeometry relative="1" as="geometry">
            <Array as="points">
              <mxPoint x="439" y="297" />
            </Array>
          </mxGeometry>
        </mxCell>
        <mxCell id="X-BTb6-6nl6qmNZ8qR7I-89" value="M" style="text;html=1;align=center;verticalAlign=middle;resizable=0;points=[];autosize=1;strokeColor=none;fillColor=none;" vertex="1" parent="1">
          <mxGeometry x="413" y="254" width="28" height="26" as="geometry" />
        </mxCell>
        <mxCell id="X-BTb6-6nl6qmNZ8qR7I-90" value="1" style="text;html=1;align=center;verticalAlign=middle;resizable=0;points=[];autosize=1;strokeColor=none;fillColor=none;" vertex="1" parent="1">
          <mxGeometry x="362" y="231" width="25" height="26" as="geometry" />
        </mxCell>
        <mxCell id="X-BTb6-6nl6qmNZ8qR7I-91" style="edgeStyle=orthogonalEdgeStyle;rounded=0;orthogonalLoop=1;jettySize=auto;html=1;exitX=0;exitY=0.25;exitDx=0;exitDy=0;entryX=0.609;entryY=0.898;entryDx=0;entryDy=0;entryPerimeter=0;endArrow=none;startFill=0;" edge="1" parent="1" source="X-BTb6-6nl6qmNZ8qR7I-3" target="X-BTb6-6nl6qmNZ8qR7I-69">
          <mxGeometry relative="1" as="geometry">
            <Array as="points">
              <mxPoint x="626" y="413" />
              <mxPoint x="554" y="413" />
            </Array>
          </mxGeometry>
        </mxCell>
        <mxCell id="X-BTb6-6nl6qmNZ8qR7I-92" value="M" style="text;html=1;align=center;verticalAlign=middle;resizable=0;points=[];autosize=1;strokeColor=none;fillColor=none;" vertex="1" parent="1">
          <mxGeometry x="557" y="390" width="28" height="26" as="geometry" />
        </mxCell>
        <mxCell id="X-BTb6-6nl6qmNZ8qR7I-97" value="1" style="text;html=1;align=center;verticalAlign=middle;resizable=0;points=[];autosize=1;strokeColor=none;fillColor=none;" vertex="1" parent="1">
          <mxGeometry x="825" y="298" width="25" height="26" as="geometry" />
        </mxCell>
        <mxCell id="X-BTb6-6nl6qmNZ8qR7I-99" style="edgeStyle=orthogonalEdgeStyle;rounded=0;orthogonalLoop=1;jettySize=auto;html=1;exitX=1;exitY=0.25;exitDx=0;exitDy=0;entryX=0.391;entryY=0.932;entryDx=0;entryDy=0;entryPerimeter=0;endArrow=none;startFill=0;" edge="1" parent="1" source="X-BTb6-6nl6qmNZ8qR7I-3" target="X-BTb6-6nl6qmNZ8qR7I-82">
          <mxGeometry relative="1" as="geometry">
            <Array as="points">
              <mxPoint x="746" y="414" />
              <mxPoint x="845" y="414" />
            </Array>
          </mxGeometry>
        </mxCell>
        <mxCell id="X-BTb6-6nl6qmNZ8qR7I-100" value="M" style="text;html=1;align=center;verticalAlign=middle;resizable=0;points=[];autosize=1;strokeColor=none;fillColor=none;" vertex="1" parent="1">
          <mxGeometry x="749" y="378" width="28" height="26" as="geometry" />
        </mxCell>
        <mxCell id="X-BTb6-6nl6qmNZ8qR7I-101" value="M" style="text;html=1;align=center;verticalAlign=middle;resizable=0;points=[];autosize=1;strokeColor=none;fillColor=none;" vertex="1" parent="1">
          <mxGeometry x="622" y="194" width="28" height="26" as="geometry" />
        </mxCell>
        <mxCell id="X-BTb6-6nl6qmNZ8qR7I-103" value="1" style="text;html=1;align=center;verticalAlign=middle;resizable=0;points=[];autosize=1;strokeColor=none;fillColor=none;" vertex="1" parent="1">
          <mxGeometry x="720" y="264" width="25" height="26" as="geometry" />
        </mxCell>
        <mxCell id="X-BTb6-6nl6qmNZ8qR7I-104" value="1" style="text;html=1;align=center;verticalAlign=middle;resizable=0;points=[];autosize=1;strokeColor=none;fillColor=none;" vertex="1" parent="1">
          <mxGeometry x="717" y="197" width="25" height="26" as="geometry" />
        </mxCell>
        <mxCell id="X-BTb6-6nl6qmNZ8qR7I-105" value="1" style="text;html=1;align=center;verticalAlign=middle;resizable=0;points=[];autosize=1;strokeColor=none;fillColor=none;" vertex="1" parent="1">
          <mxGeometry x="597" y="262" width="25" height="26" as="geometry" />
        </mxCell>
        <mxCell id="X-BTb6-6nl6qmNZ8qR7I-106" style="edgeStyle=orthogonalEdgeStyle;rounded=0;orthogonalLoop=1;jettySize=auto;html=1;entryX=0.18;entryY=0.623;entryDx=0;entryDy=0;entryPerimeter=0;endArrow=none;startFill=0;" edge="1" parent="1" target="X-BTb6-6nl6qmNZ8qR7I-55">
          <mxGeometry relative="1" as="geometry">
            <mxPoint x="487" y="226" as="sourcePoint" />
            <Array as="points">
              <mxPoint x="532" y="231" />
              <mxPoint x="532" y="231" />
            </Array>
          </mxGeometry>
        </mxCell>
        <mxCell id="X-BTb6-6nl6qmNZ8qR7I-107" value="M" style="text;html=1;align=center;verticalAlign=middle;resizable=0;points=[];autosize=1;strokeColor=none;fillColor=none;" vertex="1" parent="1">
          <mxGeometry x="519" y="277" width="28" height="26" as="geometry" />
        </mxCell>
        <mxCell id="X-BTb6-6nl6qmNZ8qR7I-108" value="Company Database – Requirement ERD" style="text;html=1;align=center;verticalAlign=middle;resizable=0;points=[];autosize=1;strokeColor=none;fillColor=none;" vertex="1" parent="1">
          <mxGeometry x="73" y="370" width="235" height="26" as="geometry" />
        </mxCell>
      </root>
    </mxGraphModel>
  </diagram>
</mxfile>
